<?xml version="1.0" encoding="utf-8"?>
<!-- Generator: Adobe Illustrator 16.0.0, SVG Export Plug-In . SVG Version: 6.00 Build 0)  -->
<!DOCTYPE svg PUBLIC "-//W3C//DTD SVG 1.1//EN" "http://www.w3.org/Graphics/SVG/1.1/DTD/svg11.dtd">
<svg version="1.1" id="Layer_1" xmlns="http://www.w3.org/2000/svg" xmlns:xlink="http://www.w3.org/1999/xlink" x="0px" y="0px"
	 width="32px" height="720px" viewBox="0 0 32 720" enable-background="new 0 0 32 720" xml:space="preserve">
<g>
	<path d="M25.182,22.837l-7.926-7.926l4.857-2.226c0.828-0.38,0.809-0.952-0.046-1.273l-15.5-5.814
		c-0.854-0.321-1.291,0.116-0.97,0.97l5.813,15.5c0.321,0.854,0.894,0.874,1.273,0.044l2.227-4.857l7.926,7.926
		c0.323,0.324,0.747,0.485,1.172,0.485c0.424,0,0.848-0.162,1.172-0.485C25.829,24.534,25.829,23.484,25.182,22.837z"/>
</g>
<polyline fill="none" stroke="#000000" stroke-width="2" stroke-linecap="square" stroke-linejoin="round" stroke-miterlimit="10" points="
	23,85 3,85 3,71 23,71 23,85 "/>
<line fill="none" stroke="#000000" stroke-width="2" stroke-miterlimit="10" x1="23" y1="88.917" x2="23" y2="94"/>
<line fill="none" stroke="#000000" stroke-width="2" stroke-miterlimit="10" x1="26.417" y1="85" x2="31.5" y2="85"/>
</svg>
